<?xml version="1.0" encoding="utf-8"?>
<!-- Generator: Adobe Illustrator 22.0.1, SVG Export Plug-In . SVG Version: 6.00 Build 0)  -->
<svg version="1.1" id="Layer_1" xmlns="http://www.w3.org/2000/svg" xmlns:xlink="http://www.w3.org/1999/xlink" x="0px" y="0px"
	 viewBox="0 0 24 24" style="enable-background:new 0 0 24 24;" xml:space="preserve">
<style type="text/css">
	.st0{fill:#577473;}
</style>
<g id="_x39_f58cb6c-6fcb-4f43-8396-aaa89a0ecad2">
	<g id="_x30_5608e51-bbef-48a4-a5c6-8a4bb593e6a7">
		<path id="_x30_36f3303-5669-4424-af31-91c866af8191" class="st0" d="M12.3,13C9.9,13,8,11.1,8,8.7s1.9-4.3,4.3-4.3
			s4.3,1.9,4.3,4.3S14.6,13,12.3,13 M12,1.3c-3.9,0-7.1,3.1-7.1,7c0,0.1,0,0.2,0,0.3c0,0.9,0.2,1.9,0.6,2.7c2,4.4,3.6,7,6.6,11.4
			c3.1-4.7,4.7-7,6.7-11.4c0.3-0.9,0.4-1.8,0.4-2.7c0.1-3.9-3-7.2-6.9-7.3C12.1,1.3,12.1,1.3,12,1.3"/>
	</g>
</g>
</svg>
