<svg class="icon icon-place" data-name="Layer 1" xmlns="http://www.w3.org/2000/svg" viewBox="0 0 28 42"><defs></defs><title>place</title><g id="9f58cb6c-6fcb-4f43-8396-aaa89a0ecad2" data-name="Home"><g id="05608e51-bbef-48a4-a5c6-8a4bb593e6a7" data-name="Artboard-Copy-10"><path id="036f3303-5669-4424-af31-91c866af8191" data-name="Page-1-Copy-4" class="8b3957c6-fd4f-40f7-8642-da468d2de456" d="M22.5,24A8.5,8.5,0,1,1,31,15.5,8.51,8.51,0,0,1,22.5,24M22,1A13.88,13.88,0,0,0,8,15.29a17.1,17.1,0,0,0,1.15,5.34c3.9,8.7,7,13.65,12.85,22.37,6-9.12,9.28-13.74,13.17-22.37A16.82,16.82,0,0,0,36,15.29,13.93,13.93,0,0,0,22,1" transform="translate(-8 -1)"/></g></g></svg>
